<?xml version="1.0" encoding="UTF-8" standalone="no"?>
<!-- Created with Inkscape (http://www.inkscape.org/) -->
<svg id="svg6585" xmlns:rdf="http://www.w3.org/1999/02/22-rdf-syntax-ns#" xmlns="http://www.w3.org/2000/svg" height="26.231mm" width="79.877mm" version="1.1" xmlns:cc="http://creativecommons.org/ns#" xmlns:xlink="http://www.w3.org/1999/xlink" viewBox="0 0 79.87709 26.230507" xmlns:dc="http://purl.org/dc/elements/1.1/">
 <defs id="defs6579">
  <linearGradient id="linearGradient7138" y2="31.869" gradientUnits="userSpaceOnUse" x2="101.83" y1="43.628" x1="103.43">
   <stop id="stop7132" stop-color="#078aff" offset="0"/>
   <stop id="stop7140" stop-color="#bbdfff" stop-opacity=".98266" offset=".59321"/>
   <stop id="stop7134" stop-color="#078aff" offset="1"/>
  </linearGradient>
  <filter id="filter7561" style="color-interpolation-filters:sRGB">
   <feFlood id="feFlood7551" result="flood" flood-opacity=".69804" flood-color="rgb(0,0,0)"/>
   <feComposite id="feComposite7553" operator="in" result="composite1" in2="SourceGraphic" in="flood"/>
   <feGaussianBlur id="feGaussianBlur7555" stdDeviation="0.1" result="blur" in="composite1"/>
   <feOffset id="feOffset7557" result="offset" dx="0.7" dy="1.1"/>
   <feComposite id="feComposite7559" operator="over" result="composite2" in2="offset" in="SourceGraphic"/>
  </filter>
 </defs>
 <metadata id="metadata6582">
  <rdf:RDF>
   <cc:Work rdf:about="">
    <dc:format>image/svg+xml</dc:format>
    <dc:type rdf:resource="http://purl.org/dc/dcmitype/StillImage"/>
    <dc:title/>
   </cc:Work>
  </rdf:RDF>
 </metadata>
 <g id="layer1" transform="translate(-58.485 -50.306)" display="none">
  <rect id="rect7130" style="paint-order:markers fill stroke" height="25.925" width="94.613" y="13.694" x="54.523" fill="url(#linearGradient7138)"/>
 </g>
 <g id="layer6" transform="translate(-58.485 -50.306)">
  <g id="flowRoot7147" aria-label="GG-CV" style="font-variant-ligatures:normal;font-variant-numeric:normal;font-variant-caps:normal;font-feature-settings:normal" transform="matrix(1.5988 -.18751 -1.0659 1.7238 -195.38 1.8184)" filter="url(#filter7561)" stroke="#fff" stroke-width=".41373">
   <path id="path881" d="m212.47 60.104q0 0.86589-0.18229 1.6536-0.17578 0.78776-0.57292 1.3932-0.39062 0.60547-1.0156 0.97005-0.61849 0.35807-1.4974 0.35807-0.89192 0-1.5104-0.36458-0.61849-0.37109-1.0156-0.97656-0.39062-0.60547-0.5664-1.3997-0.16928-0.79427-0.16928-1.6471 0-0.85286 0.16928-1.6471 0.17578-0.79427 0.5664-1.4062 0.39714-0.61198 1.0156-0.97656 0.61849-0.37109 1.5104-0.37109 0.78776 0 1.3477 0.27995 0.5599 0.27995 0.82682 0.85286v-0.98958h0.76172v2.7865h-0.76172q0-0.46224-0.17578-0.85938-0.16927-0.40365-0.46224-0.6901-0.29297-0.28646-0.69661-0.44922-0.39714-0.16927-0.83985-0.16927-0.6901 0-1.1458 0.32552-0.44922 0.32552-0.72266 0.85286-0.27343 0.52734-0.39062 1.1719-0.11068 0.64453-0.11068 1.2891 0 0.63802 0.11068 1.2891 0.11719 0.64453 0.39062 1.1654 0.27344 0.51432 0.72266 0.84636 0.45573 0.32552 1.1458 0.32552 1.0286 0 1.6211-0.79427 0.59244-0.79427 0.70312-2.2331h-1.8815v-0.76172h2.8255z"/>
   <path id="path883" d="m219.76 60.104q0 0.86589-0.18229 1.6536-0.17578 0.78776-0.57292 1.3932-0.39062 0.60547-1.0156 0.97005-0.61849 0.35807-1.4974 0.35807-0.89193 0-1.5104-0.36458-0.61849-0.37109-1.0156-0.97656-0.39063-0.60547-0.56641-1.3997-0.16927-0.79427-0.16927-1.6471 0-0.85286 0.16927-1.6471 0.17578-0.79427 0.56641-1.4062 0.39713-0.61198 1.0156-0.97656 0.61849-0.37109 1.5104-0.37109 0.78776 0 1.3477 0.27995 0.55989 0.27995 0.82682 0.85286v-0.98958h0.76172v2.7865h-0.76172q0-0.46224-0.17578-0.85938-0.16927-0.40365-0.46224-0.6901-0.29297-0.28646-0.69662-0.44922-0.39713-0.16927-0.83984-0.16927-0.6901 0-1.1458 0.32552-0.44922 0.32552-0.72266 0.85286t-0.39062 1.1719q-0.11068 0.64453-0.11068 1.2891 0 0.63802 0.11068 1.2891 0.11718 0.64453 0.39062 1.1654 0.27344 0.51432 0.72266 0.84636 0.45573 0.32552 1.1458 0.32552 1.0286 0 1.6211-0.79427 0.59245-0.79427 0.70313-2.2331h-1.8815v-0.76172h2.8255z"/>
   <path id="path885" d="m226.72 61.595h-6.0677v-0.76172h6.0677z"/>
   <path id="path887" d="m234.07 62.103q-0.33203 1.0938-1.0872 1.7383-0.7552 0.63802-1.901 0.63802-0.89192 0-1.5104-0.36458-0.61849-0.37109-1.0156-0.97656-0.39062-0.60547-0.5664-1.3997-0.16928-0.79427-0.16928-1.6471 0-0.85286 0.16928-1.6471 0.17578-0.79427 0.5664-1.4062 0.39714-0.61198 1.0156-0.97656 0.61849-0.37109 1.5104-0.37109 0.78776 0 1.3477 0.27995 0.5599 0.27995 0.82682 0.85286v-0.98958h0.76172v2.7865h-0.76172q0-0.44922-0.17578-0.84635-0.16927-0.40365-0.46224-0.69662t-0.69661-0.45573q-0.39714-0.16927-0.83985-0.16927-0.6901 0-1.1458 0.32552-0.44922 0.32552-0.72266 0.85286-0.27343 0.52734-0.39062 1.1719-0.11068 0.64453-0.11068 1.2891 0 0.63802 0.11068 1.2891 0.11719 0.64453 0.39062 1.1654 0.27344 0.51432 0.72266 0.84636 0.45573 0.32552 1.1458 0.32552 1.5885 0 2.2135-1.9206z"/>
   <path id="path889" d="m241.71 55.833-2.8386 8.4961h-1.2109l-2.8125-8.4961h0.94401l2.4805 7.5911 2.4674-7.5911z"/>
  </g>
 </g>
</svg>
