<?xml version="1.0" encoding="UTF-8" standalone="no"?>
<svg
   xmlns:dc="http://purl.org/dc/elements/1.1/"
   xmlns:cc="http://creativecommons.org/ns#"
   xmlns:rdf="http://www.w3.org/1999/02/22-rdf-syntax-ns#"
   xmlns:svg="http://www.w3.org/2000/svg"
   xmlns="http://www.w3.org/2000/svg"
   xmlns:xlink="http://www.w3.org/1999/xlink"
   xmlns:sodipodi="http://sodipodi.sourceforge.net/DTD/sodipodi-0.dtd"
   xmlns:inkscape="http://www.inkscape.org/namespaces/inkscape"
   viewBox="0 0 634.65643 645.32397"
   version="1.1"
   id="svg6"
   sodipodi:docname="html-css-js.svg"
   width="634.65643"
   height="645.32397"
   inkscape:version="0.92.1 r15371">
  <metadata
     id="metadata12">
    <rdf:RDF>
      <cc:Work
         rdf:about="">
        <dc:format>image/svg+xml</dc:format>
        <dc:type
           rdf:resource="http://purl.org/dc/dcmitype/StillImage" />
        <dc:title></dc:title>
      </cc:Work>
    </rdf:RDF>
  </metadata>
  <defs
     id="defs10">
    <linearGradient
       inkscape:collect="always"
       id="linearGradient5926">
      <stop
         style="stop-color:#ffe621;stop-opacity:1"
         offset="0"
         id="stop5922" />
      <stop
         id="stop5934"
         offset="0.37225232"
         style="stop-color:#f7df1e;stop-opacity:0.6627451;" />
      <stop
         id="stop5932"
         offset="0.71534377"
         style="stop-color:#f7df1e;stop-opacity:0.59215686;" />
      <stop
         style="stop-color:#f7df1e;stop-opacity:0;"
         offset="1"
         id="stop5924" />
    </linearGradient>
    <filter
       id="a">
      <feGaussianBlur
         id="feGaussianBlur4640"
         stdDeviation="12.86803" />
    </filter>
    <filter
       style="color-interpolation-filters:sRGB"
       inkscape:label="Drop Shadow"
       id="filter5175">
      <feFlood
         flood-opacity="0.498039"
         flood-color="rgb(0,0,0)"
         result="flood"
         id="feFlood5165" />
      <feComposite
         in="flood"
         in2="SourceGraphic"
         operator="in"
         result="composite1"
         id="feComposite5167" />
      <feGaussianBlur
         in="composite1"
         stdDeviation="6.7"
         result="blur"
         id="feGaussianBlur5169" />
      <feOffset
         dx="6.9"
         dy="6.7"
         result="offset"
         id="feOffset5171" />
      <feComposite
         in="SourceGraphic"
         in2="offset"
         operator="over"
         result="composite2"
         id="feComposite5173" />
    </filter>
    <filter
       style="color-interpolation-filters:sRGB"
       inkscape:label="Drop Shadow"
       id="filter5187">
      <feFlood
         flood-opacity="0.498039"
         flood-color="rgb(0,0,0)"
         result="flood"
         id="feFlood5177" />
      <feComposite
         in="flood"
         in2="SourceGraphic"
         operator="in"
         result="composite1"
         id="feComposite5179" />
      <feGaussianBlur
         in="composite1"
         stdDeviation="6.7"
         result="blur"
         id="feGaussianBlur5181" />
      <feOffset
         dx="6.9"
         dy="6.7"
         result="offset"
         id="feOffset5183" />
      <feComposite
         in="SourceGraphic"
         in2="offset"
         operator="over"
         result="composite2"
         id="feComposite5185" />
    </filter>
    <filter
       style="color-interpolation-filters:sRGB"
       inkscape:label="Drop Shadow"
       id="filter5263">
      <feFlood
         flood-opacity="0.592157"
         flood-color="rgb(17,27,255)"
         result="flood"
         id="feFlood5253" />
      <feComposite
         in="flood"
         in2="SourceGraphic"
         operator="in"
         result="composite1"
         id="feComposite5255" />
      <feGaussianBlur
         in="composite1"
         stdDeviation="6.7"
         result="blur"
         id="feGaussianBlur5257" />
      <feOffset
         dx="6.9"
         dy="6.7"
         result="offset"
         id="feOffset5259" />
      <feComposite
         in="SourceGraphic"
         in2="offset"
         operator="over"
         result="composite2"
         id="feComposite5261" />
    </filter>
    <radialGradient
       inkscape:collect="always"
       xlink:href="#linearGradient5926"
       id="radialGradient5928"
       cx="317.66949"
       cy="317.66949"
       fx="317.66949"
       fy="317.66949"
       r="315"
       gradientUnits="userSpaceOnUse"
       gradientTransform="matrix(0.99576279,0,0,1.0069831,1.3460551,-3.5530575)" />
  </defs>
  <sodipodi:namedview
     pagecolor="#ffffff"
     bordercolor="#666666"
     borderopacity="1"
     objecttolerance="10"
     gridtolerance="10"
     guidetolerance="10"
     inkscape:pageopacity="0"
     inkscape:pageshadow="2"
     inkscape:window-width="1680"
     inkscape:window-height="1021"
     id="namedview8"
     showgrid="false"
     inkscape:zoom="0.74920635"
     inkscape:cx="530.16645"
     inkscape:cy="522.9975"
     inkscape:window-x="1366"
     inkscape:window-y="0"
     inkscape:window-maximized="1"
     inkscape:current-layer="layer2"
     showguides="true"
     inkscape:guide-bbox="true"
     fit-margin-top="0"
     fit-margin-left="0"
     fit-margin-right="0"
     fit-margin-bottom="0">
    <sodipodi:guide
       position="-530.57661,547.95985"
       orientation="0,1"
       id="guide5189"
       inkscape:locked="false" />
    <sodipodi:guide
       position="-503.88169,283.68019"
       orientation="0,1"
       id="guide5191"
       inkscape:locked="false" />
  </sodipodi:namedview>
  <g
     inkscape:groupmode="layer"
     id="layer1"
     inkscape:label="Layer 1"
     transform="translate(1.9869428,7.9361733)">
    <rect
       y="1.3347405"
       x="2.6695049"
       style="fill:url(#radialGradient5928);fill-opacity:1"
       width="630"
       height="630"
       id="rect2" />
    <path
       inkscape:connector-curvature="0"
       d="m 417.37324,543.98917 c 10.04695,16.40448 23.11827,28.4624 46.23655,28.4624 19.42094,0 31.82722,-9.70651 31.82722,-23.11828 0,-16.07195 -12.74672,-21.76443 -34.12321,-31.11467 l -11.71748,-5.02743 c -33.82236,-14.40934 -56.29143,-32.4606 -56.29143,-70.62159 0,-35.15246 26.78395,-61.91265 68.64229,-61.91265 29.80041,0 51.2244,10.37155 66.66298,37.52761 l -36.49838,23.43497 c -8.03598,-14.40934 -16.70533,-20.08598 -30.1646,-20.08598 -13.72846,0 -22.42948,8.70894 -22.42948,20.08598 0,14.06098 8.70894,19.75346 28.81867,28.4624 l 11.71749,5.01952 c 39.82361,17.07744 62.30851,34.4874 62.30851,73.63013 0,42.19878 -33.1494,65.31706 -77.66792,65.31706 -43.52887,0 -71.65083,-20.74311 -85.41095,-47.93084 z m -165.5728,4.06153 c 7.36301,13.06341 14.06098,24.10793 30.1646,24.10793 15.39899,0 25.11342,-6.025 25.11342,-29.45205 V 383.33297 h 46.86994 v 160.00699 c 0,48.53255 -28.45449,70.62159 -69.98822,70.62159 -37.52762,0 -59.26038,-19.42094 -70.31282,-42.81236 z"
       id="path4"
       style="stroke-width:0.79172188;filter:url(#filter5263)" />
    <g
       transform="matrix(0.64131305,0,0,0.64131305,247.95839,-152.33563)"
       id="layer1-3"
       inkscape:label="Calque 1"
       style="filter:url(#filter5187)">
      <g
         transform="translate(119,276.3622)"
         id="g3013">
        <polygon
           style="fill:#264de4"
           points="437.367,100.62 404.321,470.819 255.778,512 107.644,470.877 74.633,100.62 "
           id="polygon2989" />
        <polygon
           style="fill:#2965f1"
           points="376.03,447.246 404.27,130.894 256,130.894 256,480.523 "
           id="polygon2991" />
        <polygon
           style="fill:#ebebeb"
           points="150.31,268.217 154.38,313.627 256,313.627 256,268.217 "
           id="polygon2993" />
        <polygon
           style="fill:#ebebeb"
           points="256,176.305 255.843,176.305 142.132,176.305 146.26,221.716 256,221.716 "
           id="polygon2995" />
        <polygon
           style="fill:#ebebeb"
           points="255.801,386.206 205.227,372.55 201.994,336.333 177.419,336.333 156.409,336.333 162.771,407.634 255.791,433.457 256,433.399 256,386.153 "
           id="polygon2997" />
        <path
           inkscape:connector-curvature="0"
           d="m 160,0 h 55 v 23 h -32 v 23 h 32 v 23 h -55 z"
           id="path2999" />
        <path
           inkscape:connector-curvature="0"
           d="m 226,0 h 55 v 20 h -32 v 4 h 32 V 70 H 226 V 49 h 32 v -4 h -32 z"
           id="path3001" />
        <path
           inkscape:connector-curvature="0"
           d="m 292,0 h 55 v 20 h -32 v 4 h 32 V 70 H 292 V 49 h 32 v -4 h -32 z"
           id="path3003" />
        <polygon
           style="fill:#ffffff"
           points="349.62,399.962 360.291,280.411 361.399,268.217 369.597,176.305 255.843,176.305 255.843,221.716 319.831,221.716 315.699,268.217 255.843,268.217 255.843,313.627 311.761,313.627 306.49,372.521 255.843,386.191 255.843,433.435 348.937,407.634 "
           id="polygon3005" />
      </g>
    </g>
  </g>
  <g
     inkscape:groupmode="layer"
     id="layer2"
     inkscape:label="Layer 2"
     transform="translate(1.9869428,7.9361733)">
    <g
       id="g4847"
       transform="matrix(0.63945677,0,0,0.63945677,-26.490927,27.089023)"
       style="filter:url(#filter5175)">
      <path
         id="path4824"
         d="m 108.4,0 h 23 v 22.8 h 21.2 V 0 h 23 v 69 h -23 V 46 h -21 V 69 H 108.4 M 206,23 H 185.7 V 0 h 63.7 V 23 H 229 V 69 H 206 M 259.5,0 h 24.1 L 298.4,24.3 313.2,0 h 24.1 v 69 h -23 V 34.8 L 298.2,59.6 282.1,34.8 V 69 H 259.5 M 348.7,0 h 23 v 46.2 h 32.6 V 69 h -55.6"
         inkscape:connector-curvature="0" />
      <path
         id="path4826"
         d="M 107.6,471 74.6,100.6 H 437.4 L 404.4,470.8 255.7,512"
         inkscape:connector-curvature="0"
         style="fill:#e44d26" />
      <path
         id="path4828"
         d="M 256,480.5 V 131 H 404.3 L 376,447"
         inkscape:connector-curvature="0"
         style="fill:#f16529" />
      <path
         id="path4830"
         d="m 142,176.3 h 114 v 45.4 h -64.2 l 4.2,46.5 h 60 v 45.3 H 154.4 m 2,22.8 H 202 l 3.2,36.3 50.8,13.6 v 47.4 l -93.2,-26"
         inkscape:connector-curvature="0"
         style="fill:#ebebeb" />
      <path
         id="path4832"
         d="M 369.6,176.3 H 255.8 v 45.4 h 109.6 m -4.1,46.5 H 255.8 v 45.4 h 56 l -5.3,59 -50.7,13.6 v 47.2 l 93,-25.8"
         inkscape:connector-curvature="0"
         style="fill:#ffffff;fill-opacity:0.97340423" />
    </g>
  </g>
</svg>
