<?xml version="1.0" encoding="UTF-8" standalone="no"?>
<svg xmlns:rdf="http://www.w3.org/1999/02/22-rdf-syntax-ns#" xmlns="http://www.w3.org/2000/svg" height="387.65" width="386.66" version="1.1" xmlns:cc="http://creativecommons.org/ns#" xmlns:dc="http://purl.org/dc/elements/1.1/" viewBox="0 0 386.66527 447.51209">
 <metadata>
  <rdf:RDF>
   <cc:Work rdf:about="">
    <dc:format>image/svg+xml</dc:format>
    <dc:type rdf:resource="http://purl.org/dc/dcmitype/StillImage"/>
    <dc:title/>
   </cc:Work>
  </rdf:RDF>
 </metadata>
 <defs>
  <filter id="a-3">
   <feGaussianBlur stdDeviation="12.86803"/>
  </filter>
  <filter id="filter5355" style="color-interpolation-filters:sRGB">
   <feFlood result="flood" flood-color="rgb(0,0,0)"/>
   <feComposite operator="in" result="composite1" in2="SourceGraphic" in="flood"/>
   <feGaussianBlur stdDeviation="4.9" result="blur" in="composite1"/>
   <feOffset result="offset" dx="10" dy="10"/>
   <feComposite operator="over" result="composite2" in2="offset" in="SourceGraphic"/>
  </filter>
 </defs>
 <g transform="translate(575.76 194.68)">
  <g transform="matrix(.28604 0 0 .28604 -598.82 -208.82)">
   <path d="m567.88-922.36c-0.67373 0-1.2188 0.0147-1.2188 0.0312v585.47c0 0.0409 0.54502 0.0937 1.2188 0.0937h497.56c0.6737 0 1.2187-0.0529 1.2187-0.0937v-585.47c0-0.0166-0.545-0.0312-1.2187-0.0312z" transform="matrix(1.303,0,0,1.3053,-649.09,1329.8)" filter="url(#a-3)" fill="#1c241f"/>
   <path fill="#fff" d="m97.92 241.08h613.19c0.83029 0 1.4987 0.0405 1.4987 0.0908v519.53c0 0.0503-0.66843 0.0908-1.4987 0.0908h-613.19c-0.83029 0-1.4987-0.0405-1.4987-0.0908v-519.53c0-0.0503 0.66844-0.0908 1.4987-0.0908z"/>
   <path fill="#55f" d="m97.92 128.8h613.19c0.83029 0 1.4987 0.01 1.4987 0.0212v121.4c0 0.0123-0.66843 0.0212-1.4987 0.0212h-613.19c-0.83029 0-1.4987-0.01-1.4987-0.0212v-121.4c0-0.0123 0.66844-0.0212 1.4987-0.0212z"/>
   <path fill="#55f" d="m96.809 760.81h613.19c0.83029 0 1.4987 0.01 1.4987 0.0212v121.4c0 0.0123-0.66842 0.0212-1.4987 0.0212h-613.19c-0.8303 0-1.4987-0.01-1.4987-0.0212v-121.4c0-0.0123 0.66843-0.0212 1.4987-0.0212z"/>
   <g letter-spacing="0" transform="matrix(1.344,0,0,1.13,-347.75,1330.8)" word-spacing="0" font-size="22.325" fill="#fff">
    <path d="m411.14-426.7v-39.622c0-1.8217-0.48222-3.1076-1.4466-3.8577-0.91086-0.75006-2.6522-1.2591-5.224-1.527v-2.0092h24.513c9.2692 0.00005 16.556 2.3576 21.86 7.0725 5.3043 4.715 7.9565 11.225 7.9566 19.53s-2.6522 15.002-7.9566 20.092-12.297 7.6351-20.976 7.6351h-25.397v-2.0092c2.3039-0.0536 3.9917-0.509 5.0633-1.3663s1.6074-2.17 1.6074-3.9381m33.675-19.208c-0.00004-4.715-0.48226-8.787-1.4466-12.216s-2.2504-6.0277-3.8577-7.7958-3.2952-3.054-5.0633-3.8577c-1.7146-0.80364-3.5631-1.2055-5.5455-1.2055-3.1612 0.00005-4.7418 0.93769-4.7418 2.8129v41.31c-0.00002 1.8217 0.32146 3.054 0.96444 3.697s1.8753 0.96443 3.697 0.96443c10.662 0 15.993-7.903 15.994-23.709"/>
    <path d="m481.59-457.4c5.1972 0.00004 9.5104 1.8753 12.939 5.6259 3.4291 3.697 5.1436 8.3584 5.1436 13.984-0.00004 5.5723-1.7146 10.234-5.1436 13.984-3.4291 3.697-7.7423 5.5455-12.939 5.5455-5.2508 0-9.5908-1.8485-13.02-5.5455-3.4291-3.7506-5.1436-8.4924-5.1436-14.225 0-5.4651 1.7413-10.046 5.224-13.743 3.5362-3.7505 7.8494-5.6258 12.939-5.6259m0.0804 2.4915c-2.4647 0.00003-4.1524 1.2859-5.0633 3.8577s-1.3663 7.394-1.3663 14.467c-0.00002 5.8938 0.45541 10.019 1.3663 12.377 0.96441 2.3039 2.6254 3.4559 4.9829 3.4559s3.9917-1.2055 4.9025-3.6166c0.91083-2.4646 1.3663-6.7778 1.3663-12.939-0.00003-6.5903-0.45546-11.171-1.3663-13.743s-2.5183-3.8577-4.8222-3.8577"/>
    <path d="m534.72-428.15 1.4466 1.4466c-2.3575 3.0005-4.7418 5.1704-7.1529 6.5099-2.3575 1.2859-5.0901 1.9289-8.1977 1.9289-4.9829 0-9.1086-1.7949-12.377-5.3848-3.2148-3.5898-4.8222-8.1441-4.8222-13.663-0.00001-5.7866 1.7949-10.582 5.3848-14.386s8.1173-5.7062 13.582-5.7062c3.5362 0.00004 6.4831 0.85731 8.8406 2.5718 2.411 1.661 3.6166 3.7506 3.6166 6.2688-0.00004 1.5538-0.48225 2.7862-1.4466 3.697s-2.304 1.3663-4.0185 1.3663c-2.9469 0.00003-4.4471-1.9288-4.5007-5.7866-0.00002-2.2503-0.13397-3.6166-0.40185-4.0988-0.53582-1.018-1.527-1.527-2.9737-1.527-2.0896 0.00003-3.7506 1.2056-4.9829 3.6166-1.1788 2.3575-1.7681 5.5991-1.7681 9.7247-0.00001 5.4651 1.018 9.8319 3.054 13.1 2.0896 3.2148 4.8757 4.8222 8.3584 4.8222 1.661 0 3.0808-0.32147 4.2596-0.96443 1.2323-0.69653 2.5986-1.8753 4.0988-3.5363"/>
    <path d="m562.45-418.34v-5.224c-2.3575 2.036-4.3668 3.4291-6.0277 4.1792s-3.5363 1.1252-5.6259 1.1252c-3.322 0-5.9474-0.99122-7.8762-2.9737-1.8753-1.9824-2.8129-4.7418-2.8129-8.278v-20.253c0-1.6609-0.24111-2.7861-0.72332-3.3755s-1.5538-1.0448-3.2148-1.3663v-1.9289h15.109v27.245c-0.00002 2.036 0.32146 3.5095 0.96443 4.4203 0.69652 0.85728 1.8753 1.2859 3.5363 1.2859 2.036 0 4.2328-1.1788 6.5903-3.5363v-22.745c-0.00003-1.7145-0.3483-2.8933-1.0448-3.5362-0.64299-0.64292-1.9557-1.0448-3.9381-1.2056v-1.9289h16.154v28.933c-0.00004 1.7146 0.29465 2.9201 0.88406 3.6166 0.64292 0.64296 1.8485 0.99123 3.6166 1.0448v1.8485l-4.9829 0.56259c-4.4471 0.48222-7.9834 1.1788-10.609 2.0896"/>
    <path d="m602.46-452.02c-1.4467 0.00003-2.9469 0.6162-4.5007 1.8485-1.5002 1.2324-2.2504 2.17-2.2503 2.8129v21.459c-0.00002 1.5538 0.26788 2.6522 0.80369 3.2952s1.5002 1.0716 2.8933 1.2859v1.9289h-19.289v-1.9289c1.7681-0.32147 2.9469-0.7769 3.5363-1.3663 0.58937-0.64295 0.88405-1.7949 0.88406-3.4559v-23.629c-0.00001-1.6609-0.29469-2.8129-0.88406-3.4559s-1.7681-1.0716-3.5363-1.2859v-1.9289h15.351v6.0277c2.9469-4.6614 6.885-6.9921 11.814-6.9922 2.5182 0.00004 4.5542 0.53584 6.1081 1.6074s2.9468 2.8666 4.1792 5.3848c2.0896-2.5718 3.9916-4.3667 5.7062-5.3848 1.7681-1.0716 3.8041-1.6074 6.1081-1.6074 3.3219 0.00004 5.9473 1.0448 7.8762 3.1344 1.9824 2.0361 2.9736 4.7686 2.9737 8.1977v20.173c-0.00006 1.7146 0.26783 2.8933 0.80369 3.5363 0.58932 0.58938 1.6609 0.93765 3.2148 1.0448v1.9289h-19.128v-1.9289c1.5538-0.10715 2.5986-0.48221 3.1344-1.1252s0.80365-1.7949 0.8037-3.4559v-19.449c-0.00005-2.3575-0.34832-4.0452-1.0448-5.0633-0.643-1.0716-1.7146-1.6074-3.2148-1.6074-1.3931 0.00003-2.8933 0.64299-4.5007 1.9289-1.5538 1.2324-2.3308 2.1432-2.3307 2.7326v21.459c-0.00004 1.5538 0.26786 2.679 0.80369 3.3755 0.58934 0.64296 1.5806 1.0448 2.9737 1.2055v1.9289h-18.806v-1.9289c1.5002-0.10715 2.5182-0.48221 3.054-1.1252s0.80367-1.7949 0.8037-3.4559v-19.449c-0.00003-2.4111-0.3483-4.1256-1.0448-5.1436-0.64299-1.018-1.7414-1.527-3.2952-1.527"/>
    <path d="m658.97-439.08c0.0536 1.4467 0.16073 2.7594 0.32148 3.9381 0.16073 1.1252 0.42863 2.4379 0.8037 3.9381 0.42862 1.4467 0.96442 2.6522 1.6074 3.6166 0.69652 0.96444 1.6074 1.7949 2.7326 2.4915 1.1787 0.69654 2.545 1.0448 4.0988 1.0448 1.7145 0.00001 3.2683-0.40184 4.6614-1.2055s2.8933-2.1968 4.5007-4.1792l1.9289 1.1252c-2.6254 3.7506-5.0901 6.376-7.394 7.8762-2.2504 1.4466-5.0097 2.17-8.2781 2.17-4.9829 0-9.0014-1.7681-12.055-5.3044-3.0005-3.5898-4.5007-8.3048-4.5007-14.145 0-5.8937 1.527-10.636 4.5811-14.225 3.1076-3.6434 7.1797-5.4651 12.216-5.4651 9.1621 0.00004 14.172 6.1081 15.029 18.324h-20.253m10.368-4.1792c-0.0536-1.7145-0.10718-3.0272-0.16074-3.9381-0.0536-0.9109-0.18755-1.9288-0.40185-3.054-0.21434-1.1787-0.50903-2.036-0.88406-2.5718-0.3215-0.58934-0.80372-1.0716-1.4466-1.4466-0.5894-0.4286-1.3395-0.64292-2.2504-0.64295-1.9825 0.00003-3.4023 0.93768-4.2596 2.8129-0.80371 1.8753-1.2591 5.224-1.3663 10.046h10.77v-1.2056"/>
    <path d="m703.01-452.02c-1.5003 0.00003-3.0273 0.64299-4.5811 1.9289-1.5538 1.2324-2.3307 2.1432-2.3307 2.7326v21.459c-0.00002 1.5002 0.26788 2.5986 0.8037 3.2952 0.58935 0.64296 1.6342 1.0716 3.1344 1.2859v1.9289h-19.369v-1.9289c1.8217-0.37505 2.9737-0.85727 3.4559-1.4466 0.53579-0.58937 0.80369-1.7145 0.80369-3.3755v-23.629c0-1.6609-0.2679-2.7861-0.80369-3.3755-0.5358-0.64293-1.6878-1.0984-3.4559-1.3663v-1.9289h15.351v6.0277c2.9469-4.6614 6.7778-6.9921 11.493-6.9922 3.3219 0.00004 5.9473 1.0448 7.8762 3.1344 1.9824 2.0361 2.9736 4.7686 2.9737 8.1977v20.173c-0.00004 1.7146 0.26786 2.8933 0.80369 3.5363 0.53576 0.58938 1.5806 0.93765 3.1344 1.0448v1.9289h-18.887v-1.9289c1.3395-0.16073 2.3039-0.58937 2.8933-1.2859s0.88403-1.7949 0.88406-3.2952v-19.449c-0.00003-4.4471-1.3931-6.6706-4.1792-6.6707"/>
    <path d="m748.23-456.44v3.5362h-7.5547v24.191c-0.00002 1.6074 0.24109 2.7862 0.72333 3.5363 0.48219 0.69654 1.2859 1.0448 2.4111 1.0448 1.6074 0.00001 3.1344-1.3931 4.5811-4.1792l2.0092 0.88406c-1.661 3.2684-3.4023 5.5991-5.224 6.9922-1.7682 1.3395-3.9917 2.0092-6.6707 2.0092-2.7862-0.00001-4.9829-0.75012-6.5903-2.2504s-2.4111-3.563-2.4111-6.1884v-26.04h-4.1792v-2.17c2.6254-2.1967 4.8757-4.3667 6.751-6.5099 1.9289-2.1431 4.1256-4.9561 6.5903-8.4388h2.0092v13.582h7.5547"/>
   </g>
   <g font-size="120.4" letter-spacing="0" word-spacing="0" fill="#fff">
    <path d="m290.85 147.88v5.8994l6.983 0.60198 1.9264 1.9264v63.931l-1.9264 1.9264-6.983 0.60199v5.8994h34.072v-5.8994l-7.2238-0.60199-1.9264-1.9264v-30.34h34.795v30.34l-1.806 1.9264-7.2238 0.60199v5.8994h33.952v-5.8994l-6.983-0.60199-1.9264-1.9264v-63.931l1.9264-1.9264 6.983-0.60198v-5.9h-33.952v5.8994l7.2238 0.60198 1.806 1.9264v26.367h-34.795v-26.367l1.9264-1.9264 7.2238-0.60198v-5.9h-34.06"/>
    <path d="m380.64 147.88v21.31h8.3074l1.9263-12.882 1.9264-1.5652h14.448v65.496l-2.0467 1.9264-7.8258 0.60199v5.8994h35.999v-5.8994l-7.8258-0.60199-2.0468-1.9264v-65.496h14.448l1.806 1.5652 2.0468 12.882h8.3074v-21.31h-69.469"/>
    <path d="m454.39 228.67h27.33v-5.8994l-7.4646-0.84278-1.806-2.1671v-63.57l24.441 72.479h8.6686l25.043-73.081v64.653l-1.204 1.9264-7.4646 0.60199v5.8994h33.35v-5.8994l-8.187-0.60199-1.3244-1.9264v-64.172l1.3244-1.6856 8.187-0.72238v-5.779h-31.905v3.4915l-18.662 55.142-18.782-55.262v-3.3711h-31.544v5.779l7.9462 0.72238 1.4448 1.5652v63.81l-1.6856 2.1671-7.7054 0.84278v5.8994"/>
    <path d="m560.91 228.67h60.8v-23.598h-8.9094l-1.806 14.688-1.5652 1.9263h-23.116v-65.616l1.9264-1.6856 7.3442-0.60198v-5.8994h-34.67v5.8994l7.7054 0.60198 1.6856 1.6856v64.172l-2.0467 1.9264-7.3442 0.60199v5.8994"/>
   </g>
   <g fill="#55f">
    <g font-size="328.52" letter-spacing="0" word-spacing="0">
     <path fill="#55f" d="m162.09 307.53v16.097l19.054 1.6426 5.2563 5.2563v174.44l-5.2563 5.2563-19.054 1.6426v16.097h92.97v-16.097l-19.711-1.6426-5.2563-5.2563v-82.786h94.941v82.786l-4.9278 5.2563-19.711 1.6426v16.097h92.642v-16.097l-19.054-1.6426-5.2563-5.2563v-174.44l5.2563-5.2563 19.054-1.6426v-16.1h-92.642v16.097l19.711 1.6426 4.9278 5.2563v71.945h-94.941v-71.945l5.2563-5.2563 19.711-1.6426v-16.11h-92.97"/>
    </g>
    <path d="m407.81 405.28h245.45c0.37067 0 0.66908 0.0141 0.66908 0.0316v39.05c0 0.0175-0.29841 0.0315-0.66908 0.0315h-245.45c-0.37065 0-0.66906-0.0141-0.66906-0.0315v-39.05c0-0.0175 0.29841-0.0316 0.66906-0.0316z"/>
    <path d="m407.81 466.31h245.45c0.37067 0 0.66908 0.0141 0.66908 0.0316v39.05c0 0.0175-0.29841 0.0315-0.66908 0.0315h-245.45c-0.37065 0-0.66906-0.0141-0.66906-0.0315v-39.05c0-0.0175 0.29841-0.0316 0.66906-0.0316z"/>
    <path d="m528.27 342.42h125.31c0.18924 0 0.34159 0.0141 0.34159 0.0316v39.05c0 0.0175-0.15235 0.0315-0.34159 0.0315h-125.31c-0.18923 0-0.34158-0.0141-0.34158-0.0315v-39.05c0-0.0175 0.15235-0.0316 0.34158-0.0316z"/>
    <path d="m139.51 553.83h518.43c0.78291 0 1.4132 0.0146 1.4132 0.0327v40.35c0 0.0181-0.6303 0.0326-1.4132 0.0326h-518.43c-0.78291 0-1.4132-0.0146-1.4132-0.0326v-40.35c0-0.0181 0.63028-0.0327 1.4132-0.0327z"/>
    <path d="m139.51 619.42h518.43c0.78291 0 1.4132 0.0146 1.4132 0.0327v40.35c0 0.0181-0.6303 0.0326-1.4132 0.0326h-518.43c-0.78291 0-1.4132-0.0146-1.4132-0.0326v-40.35c0-0.0181 0.63028-0.0327 1.4132-0.0327z"/>
    <path d="m139.06 685.01h350.66c0.52956 0 0.9559 0.0146 0.9559 0.0327v40.35c0 0.0181-0.42634 0.0326-0.9559 0.0326h-350.66c-0.52957 0-0.95589-0.0146-0.95589-0.0326v-40.35c0-0.0181 0.42632-0.0327 0.95589-0.0327z"/>
   </g>
   <g word-spacing="0" letter-spacing="0">
    <g transform="scale(.89238 1.1206)" font-size="95.779" fill="#fff">
     <path d="m191.54 158.01-48.264 17.164 48.264 17.07v8.5116l-59.955-21.747v-7.7633l59.955-21.747v8.5116"/>
     <path d="m209.64 135.32 24.319 78.709h-7.9504l-24.319-78.709h7.9504"/>
     <path d="m244.2 158.01v-8.5116l59.955 21.747v7.7633l-59.955 21.747v-8.5116l48.17-17.07-48.17-17.164"/>
    </g>
    <g transform="scale(.74211 1.3475)" font-size="96.046" fill="#55f">
     <path d="m599.67 241.62v-8.6441l-55.226 22.763v7.4916l55.226 22.667v-8.5481l-43.797-17.864 43.797-17.864"/>
     <path d="m679.77 255.74-55.226-22.763v8.6441l43.797 17.864-43.797 17.864v8.5481l55.226-22.667v-7.4916"/>
    </g>
    <g transform="scale(.89238 1.1206)" font-size="82.855" fill="#55f">
     <path d="m616.9 613.9v-7.457l-47.642 19.637v6.4627l47.642 19.554v-7.3741l-37.782-15.411 37.782-15.411"/>
     <path d="m627.09 598.41 34.633 63.301h6.2141l-34.63-63.3h-6.21"/>
     <path d="m726.62 626.08-47.642-19.637v7.457l37.782 15.411-37.782 15.411v7.3741l47.642-19.554v-6.4627"/>
    </g>
   </g>
  </g>
 </g>
 <g transform="translate(575.76 194.68)">
  <g filter="url(#filter5355)" stroke-width="1.1544" transform="matrix(.33483 0 0 .33483 -306.32 -8.3842)">
   <path fill="#e9f3fa" d="m46.182 712.54c-79.044-8.7213-148.98-41.978-203.76-96.9-53.007-53.138-85.196-118.58-95.991-195.14-2.0785-14.742-2.0785-68.376 0-83.118 5.5687-39.498 15.542-72.267 32.501-106.78 32.12-65.39 86.59-119.85 151.81-151.8 34.832-17.064 67.295-26.949 106.78-32.517 14.742-2.0785 68.376-2.0785 83.118 0 39.49 5.5675 71.952 15.453 106.78 32.517 65.221 31.952 119.69 86.413 151.81 151.79 16.959 34.517 26.932 67.286 32.501 106.78 2.0785 14.742 2.0785 68.376 0 83.118-5.5687 39.498-15.542 72.267-32.501 106.78-32.14 65.415-86.557 119.83-151.81 151.79-34.021 16.667-64.327 26.085-102.67 31.908-13.689 2.0786-64.677 3.0871-78.572 1.554zm90.598-151.24c30.746-8.277 55.997-15.16 56.113-15.296 0.11553-0.13584 6.1233-64.404 13.351-142.82l13.14-142.57-70.151-0.29748c-38.583-0.16361-101.72-0.16361-140.3 0l-70.151 0.29748 13.14 142.57c7.2273 78.414 13.236 142.68 13.352 142.82 0.53796 0.63184 111.2 30.208 113.26 30.272 1.2876 0.0395 27.497-6.7002 58.244-14.977zm-95.102-51.96c-18.986-5.61-35.217-10.9-36.069-11.75-1.6627-1.66-6.6178-52.68-5.42-55.8 0.52307-1.36 4.1159-1.67 19.543-1.67 21.927 0 19.531-1.8087 21.136 15.954 0.53489 5.9173 1.4299 11.17 1.9888 11.673 0.55896 0.50257 9.0565 3.1234 18.883 5.8242l17.867 4.9104 18.662-5.5886 18.662-5.5886 0.67057-7.5311c0.36882-4.1421 1.0145-13.635 1.4348-21.096l0.7642-13.564h-60.711c-57.329 0-60.786-0.11636-61.837-2.0813-0.61263-1.1447-1.2803-10.024-1.4837-19.731l-0.36978-17.649 37.44-15.768 37.44-15.768-38.915-0.30401-38.915-0.30399-1.0534-2.5821c-1.201-2.9437-4.6755-27.312-4.6632-32.705l0.0081-3.5716 17.5-0.75745c9.6249-0.41659 50.108-0.75745 89.962-0.75745 65.326 0 72.647 0.18462 74.337 1.8744 1.185 1.185 1.6566 2.9895 1.2823 4.9063-0.3257 1.6675-0.93707 9.006-1.3586 16.308-0.42152 7.3017-1.194 14.1-1.7167 15.108-0.52267 1.0074-17.459 8.7998-37.637 17.316l-36.686 15.485 34.8 0.57721c19.14 0.31747 35.187 0.96456 35.659 1.438 0.47235 0.47343 0.76859 3.3306 0.65831 6.3493-0.34432 9.4251-8.2804 102.36-8.9163 104.41-0.33196 1.0719-2.2671 2.4943-4.3003 3.161-9.2063 3.0185-70.828 19.697-72.379 19.591-0.95541-0.0657-17.271-4.7089-36.257-10.318zm-5.308-285.67v-6.3493h-11.403c-8.3856 0-11.759-0.42923-12.749-1.6222-0.84488-1.018-1.22-4.9951-1.0072-10.678l0.33913-9.0562 12.41-0.32766 12.41-0.32766v-13.775h-39.25v48.486h39.25zm62.339-0.83866v-7.188l-8.2424-8.2978c-10.208-10.27-10.11-11.95 0.702-11.95h7.54v-13.853h-39.251v14.492l8.1196 8.05c10.605 10.514 10.555 12.532-0.3273 13.009l-7.7923 0.34136v12.593h39.25zm62.339 0v-7.188l-8.2424-8.2978c-10.208-10.276-10.109-11.959 0.70245-11.959h7.54v-13.853h-39.25v14.492l8.1196 8.05c10.605 10.514 10.555 12.532-0.3273 13.009l-7.7923 0.34136v12.593h39.25z"/>
   <path fill="#d0e7f5" d="m39.483 710.81c-38.332-4.64-71.493-14.59-107.59-32.27-37.863-18.55-72.613-44.55-99.563-74.49-47.824-53.125-76.998-117.03-85.118-186.44-2.2859-19.541-2.2859-57.802 0-77.344 8.1197-69.413 37.294-133.32 85.118-186.44 39.567-43.952 96.109-79.193 153.82-95.868 30.808-8.9021 58.332-12.648 92.939-12.648 54.727 0 98.295 10.072 147.19 34.027 37.868 18.553 72.615 44.548 99.568 74.488 47.824 53.125 76.998 117.03 85.118 186.44 1.0244 8.7576 1.7537 24.839 1.7537 38.672 0 53.602-9.929 97.452-32.805 144.88-32.792 67.985-86.028 121.6-153.63 154.72-36.662 17.963-69.393 27.697-108.52 32.273-18.348 2.1463-60.511 2.1433-78.273-0.006zm97.077-148.61c49.361-13.267 56.973-15.602 57.399-17.605 0.61018-2.8648 25.991-279.54 25.972-283.12l-0.0133-2.5974h-281.68l-0.01593 2.5974c-0.02182 3.5647 25.362 280.24 25.975 283.12 0.42599 2.0011 8.0071 4.34 56.82 17.53 30.981 8.3713 56.847 15.254 57.481 15.296 0.6339 0.0413 26.761-6.808 58.06-15.221zm-95.237-53.82c-18.546-5.49-34.339-10.6-35.097-11.36-1.4513-1.45-6.1979-51.48-5.1444-54.22 0.44756-1.1663 4.7385-1.5199 18.445-1.5199 9.8441 0 18.161 0.48486 18.529 1.0802 0.36718 0.59411 1.1977 6.6755 1.8457 13.514 0.64796 6.8387 1.3006 12.557 1.4504 12.706 0.14973 0.14974 8.8351 2.6265 19.301 5.5039l19.029 5.2317 18.862-5.6628c10.374-3.1145 19.015-5.8284 19.201-6.0309 0.34957-0.37947 2.8984-36.516 2.8984-41.092v-2.5666h-122.32l-0.59772-2.5974c-0.32874-1.4286-1.0007-9.308-1.4933-17.51-0.75723-12.608-0.62369-15.219 0.86434-16.9 0.96797-1.093 18.124-8.8478 38.124-17.233 20-8.385 36.884-15.758 37.519-16.384 0.75911-0.74868-12.559-1.017-38.893-0.78352-22.026 0.19527-40.446-0.0429-40.932-0.52936-0.48643-0.48643-2.0629-8.4882-3.5032-17.782-1.9234-12.41-2.2823-17.303-1.3515-18.424 1.031-1.2423 17.899-1.527 90.47-1.527 79.677 0 89.276 0.19194 89.892 1.7974 0.66402 1.7304-1.088 28.487-2.1997 33.594-0.44326 2.0363-6.5962 5.055-33.737 16.552-18.257 7.7338-35.792 15.271-38.967 16.75l-5.7721 2.6884 36.512 0.0962c27.708 0.073 36.798 0.44415 37.701 1.5392 1.3326 1.617-7.0884 109.13-8.6656 110.63-1.4858 1.4184-72.109 20.691-75.295 20.548-1.6224-0.073-18.124-4.6234-36.67-10.112zm-5.1877-284.96 0.34262-7.1742-11.887-0.32959-11.887-0.32959v-18.471l11.833-0.32899 11.833-0.329v-16.081h-40.405v24.628c0 13.545 0.35844 24.986 0.79653 25.424 0.4381 0.43809 9.3993 0.65454 19.914 0.48101l19.117-0.31552zm63.48-0.32959 0.32981-7.5037-8.1221-8.05c-4.4672-4.4275-8.1221-8.6896-8.1221-9.4712 0-0.95129 2.5766-1.5341 7.7923-1.7626l7.7923-0.34135 0.34196-7.8192 0.34196-7.8192-20.544 0.31547-20.544 0.31545-0.34561 7.9791-0.34561 7.9791 8.1475 7.6056c10.547 9.8452 10.592 11.433 0.33603 11.882l-7.7923 0.34135-0.35765 5.6254c-0.59181 9.3084-1.5902 8.8988 20.823 8.5436l19.939-0.31597zm62.358 0.0879 0.3489-7.4159-8.3866-8.4429c-5.3606-5.3966-7.9857-8.8418-7.2754-9.5484 0.61114-0.60803 4.2281-1.2639 8.0377-1.4575l6.9265-0.35199 0.34135-7.7923 0.34135-7.7924h-40.51v16.806l7.5037 7.437c4.127 4.0904 7.5037 8.3612 7.5037 9.4906 0 1.7579-1.0805 2.0536-7.5037 2.0536h-7.5037v6.7341c0 3.7038 0.35844 7.0926 0.79653 7.5307 0.4381 0.43809 9.3993 0.65454 19.914 0.48101l19.117-0.31552z"/>
   <path fill="#b1d7ef" d="m50.8 711.32c-96.642-9.1417-181.71-56.571-238.88-133.18-34.868-46.73-55.5-97.748-63.752-157.65-2.7454-19.926-2.7454-63.192 0-83.118 5.4211-39.348 14.807-70.656 31.32-104.48 41.43-84.83 116.93-148.31 207.38-174.34 32.203-9.273 56.204-12.534 92.213-12.534 28.093 0 43.299 1.4202 67.189 6.275 68.196 13.859 134.65 52.009 180.71 103.74 45.975 51.638 73.394 111.54 83.011 181.34 2.7454 19.927 2.7454 63.192 0 83.118-5.4211 39.348-14.807 70.656-31.32 104.48-32.552 66.667-86.217 120.52-152.4 152.95-34.902 17.099-66.354 26.615-105.05 31.786-16.796 2.2443-54.601 3.1112-70.42 1.6149zm87.25-148.85c30.666-8.2674 55.908-15.184 56.095-15.371 0.18645-0.18645 6.0446-62.384 13.018-138.22 6.9735-75.833 12.995-140.61 13.381-143.94l0.70151-6.0607h-284.32l0.70152 6.0607c0.38584 3.3334 6.4071 68.106 13.381 143.94 6.9735 75.833 12.834 138.03 13.023 138.22 1.1023 1.1023 110.6 30.155 114.06 30.264 2.3111 0.073 29.292-6.6315 59.958-14.899zm-94.666-54.251c-19.32-5.66-35.772-10.96-36.563-11.77-1.6525-1.7097-5.9763-50.022-4.7603-53.191 0.66801-1.7408 2.7521-1.9778 17.393-1.9778 11.904 0 16.972 0.41035 17.822 1.443 0.65358 0.79366 1.5627 6.7592 2.0204 13.257 0.45761 6.4976 1.4151 12.284 2.1277 12.858 1.5682 1.2637 35.377 10.538 38.416 10.538 2.9718 0 36.504-10.307 37.871-11.641 1.0827-1.056 4.1117-41.193 3.2379-42.906-0.24296-0.4762-27.295-0.87377-60.115-0.88349-32.82-0.009-60.358-0.45207-61.196-0.983-1.0429-0.66129-1.8979-6.1507-2.7148-17.429-1.0057-13.887-0.93363-16.722 0.46081-18.117 0.90923-0.90924 18.643-8.8342 39.408-17.611 20.765-8.7769 38.083-16.286 38.484-16.688 0.399-0.41-17.814-0.73-40.476-0.73h-41.203l-0.94591-2.5974c-1.5196-4.1729-5.0436-31.811-4.2249-33.136 0.50931-0.82409 29.194-1.2079 90.275-1.2079h89.528l-0.84234 15.144c-0.46328 8.3292-1.2033 16.511-1.6445 18.182-0.72149 2.7325-4.7725 4.7213-40.268 19.769-21.706 9.2021-39.466 17.124-39.466 17.605 0 0.48062 16.853 0.87385 37.451 0.87385 25.624 0 37.694 0.39463 38.223 1.2496 1.247 2.0177-7.8344 107.37-9.3893 108.93-0.74623 0.74623-17.134 5.697-36.418 11.002-19.284 5.3048-35.581 9.7925-36.216 9.9728-0.63493 0.18028-16.96-4.2995-36.278-9.9551zm-5.86-284.55v-7.5037h-10.465c-14.065 0-14.932-0.55853-14.932-9.6223 0-4.0859 0.60268-7.8349 1.3853-8.6176 0.88982-0.88981 5.4498-1.3853 12.749-1.3853h11.364l-0.33918-8.3696-0.33918-8.3696h-41.559l-0.31281 24.213c-0.17204 13.317-0.058529 24.876 0.25237 25.686 0.42934 1.1188 5.5685 1.4729 21.381 1.4729h20.816zm63.261-0.3531 0.34537-7.2796-8.3504-8.6118c-5.1618-5.3234-7.9386-9.0215-7.2719-9.6847 0.59319-0.59009 4.1955-1.2313 8.0051-1.4249l6.9265-0.35199 0.36052-5.6956c0.19829-3.1326 0.0555-6.9108-0.31725-8.3961l-0.67778-2.7005-20.462 0.31513-20.462 0.31512-0.34331 8.5741-0.3433 8.5741 7.7194 7.779c9.5192 9.5927 9.4148 11.437-0.6472 11.437h-6.9628v15.06l21.068-0.31465 21.068-0.31464zm62.342-0.13626 0.34891-7.4159-8.3866-8.4429c-5.3606-5.3966-7.9857-8.8418-7.2754-9.5484 0.61114-0.60803 4.2281-1.2639 8.0377-1.4575l6.9265-0.35199v-16.162h-41.56l-0.34335 8.5759-0.34333 8.5759 8.4243 8.4886c9.6013 9.6746 9.4444 10.677-1.6769 10.706l-6.6379 0.0177v15.06l21.068-0.31465 21.068-0.31464z"/>
   <path fill="#90c7e9" d="m50.8 710.68c-72.562-7.6472-131.1-31.86-185.46-76.716-23.559-19.439-52.079-52.197-68.761-78.977-24.189-38.832-40.304-83.285-47.291-130.45-1.581-10.672-2.0521-21.142-2.0521-45.6s0.47115-34.927 2.0521-45.6c10.587-71.471 41.502-134.79 90.509-185.37 52.567-54.257 117.92-87.602 193.69-98.826 19.663-2.9128 71.536-2.9128 91.199 0 75.766 11.224 141.12 44.569 193.69 98.826 14.627 15.097 32.788 38.175 43.218 54.92 24.189 38.832 40.304 83.285 47.291 130.45 2.9128 19.663 2.9128 71.536 0 91.199-10.587 71.471-41.502 134.79-90.509 185.37-51.879 53.546-116.1 86.711-190.22 98.231-11.352 1.7644-22.038 2.4174-43.868 2.6807-15.873 0.19144-30.938 0.12908-33.478-0.13859zm85.81-147.13c30.899-8.3078 56.757-15.711 57.462-16.45 1.1334-1.1894 27.075-275.4 27.021-285.62l-0.0199-3.7519h-283.98l-0.02066 3.7519c-0.04144 7.5212 25.559 283.17 26.455 284.85 0.59768 1.1212 20.621 7.0888 56.798 16.928 30.731 8.3578 56.828 15.241 57.993 15.296 1.1651 0.0551 27.399-6.6972 58.298-15.005zm-94.77-56.38c-18.897-5.57-34.64-10.41-34.986-10.75-0.9423-0.94-5.2384-51.7-4.4802-52.93 0.35978-0.58213 8.3745-1.0584 17.81-1.0584h17.156l0.71791 7.7923c1.6291 17.683 1.8962 18.869 4.4914 19.944 1.363 0.56475 10.334 3.1689 19.935 5.787l17.456 4.7602 18.769-5.7847c10.323-3.1816 19.183-6.2109 19.688-6.7319 1.1411-1.1757 3.8741-41.336 2.9728-43.684-0.56701-1.4776-8.8246-1.7079-61.231-1.7079-33.316 0-60.829-0.41073-61.139-0.91275-0.31026-0.50201-0.93183-8.4764-1.3813-17.721l-0.81715-16.808 24.69-10.456c13.58-5.7506 31.833-13.444 40.563-17.097 8.7303-3.6528 15.873-7.0711 15.873-7.5964 0-0.52524-19.091-1.0912-42.425-1.2578l-42.425-0.30283-2.3969-16.42c-1.6388-11.227-2.0221-16.795-1.2121-17.605 1.3899-1.3899 176.9-1.7048 177.74-0.3189 1.0295 1.6968-1.8064 33.21-3.1081 34.537-0.72677 0.74121-18.724 8.6944-39.994 17.674-21.27 8.9794-39.167 16.815-39.77 17.412-0.68499 0.67804 13.238 1.0856 37.089 1.0856 29.182 0 38.449 0.34025 39.305 1.443 1.277 1.6466-7.1765 106.95-8.7087 108.48-1.1785 1.1785-71.158 20.555-73.829 20.443-1.0968-0.0462-17.455-4.641-36.352-10.211zm-4.547-276.23c1.5276-1.5276 1.8694-12.228 0.46136-14.443-0.57301-0.90166-4.974-1.5166-12.392-1.7316l-11.504-0.3334-0.33918-8.3696-0.33918-8.3696h11.364c7.2994 0 11.859-0.49549 12.749-1.3853 1.4368-1.4368 1.9133-12.057 0.68458-15.259-0.60382-1.5735-3.637-1.826-21.934-1.826h-21.233v25.782c0 14.18 0.34633 26.128 0.76962 26.552 1.4511 1.4511 40.218 0.87891 41.713-0.61569zm63.491-7.7869 0.34373-8.5949-7.5589-7.1256c-4.1574-3.9191-7.5589-7.689-7.5589-8.3777 0-0.72964 3.0106-1.3955 7.2151-1.5958l7.2151-0.34369 0.33762-8.9724 0.33764-8.9724-21.694 0.31426-21.694 0.31425-0.34058 8.439-0.34059 8.439 8.3007 8.5606c9.0646 9.3483 9.0443 9.5081-1.2702 10.028l-6.3493 0.32021-0.34845 7.3986c-0.24174 5.1327 0.11186 7.6951 1.1544 8.3666 0.82658 0.53241 10.594 0.83946 21.705 0.68232l20.202-0.28569zm62.324-0.0632 0.32875-8.6582-7.5439-7.4704c-4.1491-4.1087-7.5439-7.8502-7.5439-8.3145 0-0.46425 3.2468-0.99874 7.2151-1.1878l7.2151-0.34369 0.33716-8.9468 0.33718-8.9468h-21.28c-24.231 0-22.683-0.72363-22.683 10.607v6.9551l8.081 8.3339c4.4445 4.5836 8.0809 8.6842 8.0809 9.1123 0 0.42813-3.3211 0.77841-7.3802 0.77841-5.6649 0-7.5431 0.42443-8.081 1.826-1.2284 3.2012-0.75264 12.668 0.71018 14.131 1.0294 1.0294 6.8817 1.3259 21.645 1.0967l20.234-0.3142z"/>
   <path fill="#73b9e3" d="m60.036 710.74c-2.54-0.26-10.333-1.01-17.317-1.69-36.946-3.57-78.629-15.95-113.72-33.78-100.06-50.83-167.33-147.86-180.25-259.97-1.883-16.338-1.883-56.391 0-72.729 17.891-155.22 138.75-276.08 293.97-293.97 16.338-1.883 56.391-1.883 72.729 0 155.22 17.891 276.08 138.75 293.97 293.97 1.883 16.338 1.883 56.391 0 72.729-12.922 112.11-80.195 209.14-180.25 259.97-34.297 17.424-74.284 29.482-111.99 33.772-11.73 1.3345-49.494 2.4546-57.144 1.6949zm77.854-147.05c30.757-8.2684 56.337-15.448 56.843-15.955 1.1166-1.1166 27.707-287.58 26.826-289.01-0.81531-1.3192-284.14-1.3192-284.96 0-0.88212 1.4273 25.711 287.89 26.829 289.01 1.4012 1.4012 114.82 31.902 116.8 31.412 0.9524-0.23459 26.897-7.1916 57.654-15.46zm-94.528-56.68c-19.329-5.67-35.511-10.7-35.96-11.18-0.8252-0.88-4.5189-41.07-4.5133-49.1l0.00346-4.36 17.028 0.31948 17.028 0.31946 1.1889 13.051c0.78219 8.586 1.719 13.378 2.7383 14.008 2.1293 1.316 36.064 10.458 38.848 10.466 2.8289 0.008 37.671-10.373 39.067-11.64 1.0846-0.98399 4.2894-43.724 3.3908-45.221-0.28613-0.4762-27.732-0.86582-60.991-0.86582-43.522 0-60.696-0.36374-61.273-1.2978-0.44115-0.71379-1.2851-8.3583-1.8754-16.988-0.90732-13.263-0.81392-15.88 0.60377-16.916 0.92241-0.67448 19.398-8.6826 41.058-17.796 21.659-9.1132 39.38-17.021 39.38-17.573 0-0.55186-18.931-1.0034-42.068-1.0034-29.125 0-42.308-0.38729-42.846-1.2587-0.78937-1.2772-5.0933-27.647-5.1173-31.354-0.01238-1.9066 4.9844-2.0202 88.877-2.0202h88.89l-0.0412 4.9063c-0.0855 10.191-2.1265 27.739-3.3725 28.996-0.71308 0.71939-19.03 8.8406-40.704 18.047-21.674 9.2065-39.619 17.388-39.877 18.182-0.37013 1.1354 7.9176 1.443 38.876 1.443 30.688 0 39.355 0.31754 39.383 1.443 0.19585 7.7512-8.7185 105.65-9.7143 106.68-0.95931 0.99509-45.625 13.91-71.132 20.568-0.9524 0.24858-17.547-4.1852-36.876-9.8528zm-5.26-283.34v-8.081l-9.8126-0.2895c-15.649-0.46-15.171-0.16-14.771-9.27l0.34055-7.7573 12.121-0.57721 12.121-0.57721v-18.471l-20.629-0.3158c-14.236-0.21794-21.123 0.0942-22.223 1.0072-1.2663 1.0509-1.5941 6.4773-1.5941 26.386 0 13.785 0.35743 25.421 0.79429 25.858 0.43686 0.43686 10.437 0.65331 22.223 0.481l21.428-0.31327zm63.37 6.8321c0.38541-1.0043 0.70072-4.6961 0.70072-8.204 0-6.3335-0.0563-6.436-8.0853-14.716-4.4469-4.5861-7.737-8.6867-7.3113-9.1123 0.42567-0.42567 3.7487-0.77395 7.3846-0.77395 7.6823 0 8.012-0.42561 8.012-10.343 0-4.2824-0.57379-7.167-1.5941-8.0137-1.1001-0.91299-7.9866-1.2251-22.223-1.0072l-20.629 0.3158-0.33631 9.5868-0.3363 9.5868 7.5533 7.8238c4.1543 4.3031 7.2061 8.171 6.7818 8.5953-0.42431 0.4243-3.8018 0.77146-7.5056 0.77146h-6.7341v7.8885c0 4.3387 0.34633 8.2349 0.76962 8.6582 0.42328 0.42329 10.238 0.76962 21.81 0.76962 18.122 0 21.138-0.25335 21.742-1.826zm62.798-6.9396 0.33553-8.1884-7.5507-7.3307c-4.1529-4.0319-7.5507-7.9848-7.5507-8.7842 0-0.97667 2.3669-1.5662 7.2151-1.7972l7.2151-0.34369 0.33554-8.1892c0.24563-5.9948-0.10425-8.5542-1.3055-9.5512-1.1589-0.96179-7.7017-1.2691-22.27-1.0461l-20.629 0.3158-0.33615 9.5766-0.33614 9.5766 7.5839 7.0648c4.1711 3.8856 7.3989 7.6282 7.1728 8.317-0.22609 0.68871-3.4876 1.512-7.2477 1.8294l-6.8366 0.57721-0.35097 6.7973c-0.19303 3.7385-0.075 7.5163 0.26218 8.3951 0.49815 1.2981 4.6783 1.5389 22.285 1.2837l21.672-0.31417z"/>
   <path fill="#4da5da" d="m48.491 708.98c-138.09-12.87-254.93-111.63-289.71-244.9-30.26-115.93 2.89-237.53 87.5-320.98 76.119-75.076 182.25-108.43 288.79-90.759 126.53 20.983 231.9 117.24 264.32 241.45 33.46 128.21-10.36 260.96-113.67 344.34-24.531 19.798-61.381 40.619-91.568 51.736-45.011 16.576-98.105 23.542-145.67 19.112zm90.043-144.61c52.812-14.281 56.623-15.482 57.456-18.109 1.1725-3.7017 27.163-286.37 26.503-288.24-0.74636-2.1192-286.07-2.1192-286.82 0-0.66184 1.8696 25.331 284.53 26.506 288.24 0.83191 2.6268 4.6429 3.828 57.455 18.109 31.11 8.4127 57.863 15.296 59.45 15.296 1.5873 0 28.34-6.8831 59.45-15.296zm-96.02-58.28c-18.529-5.49-34.001-10.3-34.384-10.69-0.4841-0.5-4.8413-43.5-5.2207-51.53-0.00693-0.15874 7.4776-0.28861 16.634-0.28861h16.647l0.69576 7.7923c0.38267 4.2858 1.0734 10.386 1.5349 13.556l0.83916 5.7636 20.184 5.6369 20.184 5.6369 19.58-5.9105c10.769-3.2508 19.979-6.3101 20.468-6.7984 1.1571-1.1571 3.84-43.335 2.9105-45.757-0.6408-1.6699-6.7378-1.8541-61.391-1.8541-47.495 0-60.793-0.31354-61.202-1.443-0.28745-0.79367-0.66076-8.401-0.82958-16.905l-0.3128-15.46 39.828-16.86c42.009-17.785 42.714-18.112 42.714-19.802 0-0.63598-17.735-1.1955-43.579-1.3749l-43.579-0.3025-2.15-14.703c-1.1825-8.0864-1.8481-15.489-1.4793-16.45 0.59076-1.5395 11.057-1.7479 87.798-1.7479 47.92 0 87.333 0.38961 87.584 0.86581 0.51516 0.9754-1.227 27.311-2.0429 30.881-0.41344 1.8091-9.4511 6.0712-41.754 19.691-22.674 9.56-41.432 18.002-41.685 18.759-0.34967 1.049 8.9307 1.3774 38.924 1.3774 35.946 0 39.448 0.17064 40.133 1.9556 0.99199 2.5851-7.4996 104.46-8.8168 105.78-1.2166 1.2166-70.276 20.458-72.799 20.284-0.9615-0.0665-16.908-4.612-35.436-10.101zm-4.062-273.99c0.77466-0.77466 1.3853-4.4894 1.3853-8.4273s-0.61064-7.6526-1.3853-8.4273c-0.88898-0.88899-5.4386-1.3853-12.699-1.3853h-11.313v-15.007h11.313c7.26 0 11.81-0.49632 12.699-1.3853 1.4341-1.4341 1.9357-14.308 0.68458-17.568-0.60563-1.5782-3.7387-1.826-23.088-1.826h-22.389v26.936c0 14.815 0.34633 27.283 0.76962 27.706 1.4545 1.4545 42.526 0.88008 44.022-0.61569zm61.898 0.68459c1.4456-0.55472 1.826-2.5462 1.826-9.5573v-8.8566l-7.549-7.4704-7.549-7.4704 7.2604-0.57721 7.2604-0.57721v-19.625h-45.028l-0.32786 9.2354-0.32786 9.2354 7.543 7.4704c4.1486 4.1087 7.543 7.8502 7.543 8.3145 0 0.46425-3.2468 0.99874-7.2151 1.1878l-7.2151 0.34369-0.34372 7.8962c-0.21015 4.8276 0.18126 8.5288 1.0072 9.524 1.0672 1.2859 5.5442 1.6277 21.317 1.6277 10.982 0 20.788-0.31532 21.793-0.70072zm63.916-9.1119 0.32881-9.2354-6.9667-6.8904c-3.8317-3.7897-6.9667-7.2703-6.9667-7.7347 0-0.46439 2.9871-1.0002 6.6379-1.1906l6.6379-0.34621 0.33354-10.101 0.33356-10.101h-22.433c-25.63 0-23.834-0.84203-23.834 11.174v7.5216l7.5037 7.7725c4.1271 4.2749 7.5037 8.1206 7.5037 8.5459 0 0.42537-2.7533 0.77339-6.1184 0.77339s-6.7418 0.62339-7.5037 1.3853c-1.8261 1.8261-1.8068 15.048 0.0246 16.879 1.0324 1.0324 7.1365 1.326 22.8 1.0967l21.39-0.31313z"/>
   <path fill="#3699d4" d="m52.532 708.39c-65.497-5.8807-125.56-29.435-177.78-69.714-14.108-10.883-44.521-41.296-55.404-55.404-28.732-37.247-48.957-78.274-60.102-121.91-7.8395-30.699-9.625-45.988-9.625-82.418 0-27.165 0.37319-34.145 2.5857-48.362 8.9706-57.644 31.291-109.5 67.141-155.97 10.883-14.108 41.296-44.521 55.404-55.404 37.238-28.74 78.265-48.966 121.91-60.11 30.695-7.84 45.984-9.625 82.413-9.625 27.165 0 34.145 0.37319 48.362 2.5857 57.644 8.9705 109.5 31.291 155.97 67.141 14.108 10.883 44.521 41.296 55.404 55.404 28.732 37.247 48.957 78.274 60.102 121.91 7.8395 30.699 9.625 45.988 9.625 82.418 0 27.165-0.37319 34.145-2.5858 48.362-8.9705 57.644-31.291 109.5-67.141 155.97-10.883 14.108-41.296 44.521-55.404 55.404-37.242 28.728-78.275 48.958-121.9 60.098-27.597 7.0473-45.222 9.2799-76.661 9.7109-14.921 0.20459-29.467 0.16209-32.324-0.0944zm84.858-142.86c31.509-8.4873 57.878-16.019 58.596-16.738 1.4377-1.4377 27.576-278.82 27.102-287.61l-0.28031-5.1949h-287.45l-0.27894 5.1949c-0.47618 8.8679 25.649 286.15 27.097 287.6 1.2382 1.2382 111.76 31.78 115.97 32.049 1.0735 0.0684 27.732-6.8197 59.242-15.307zm-94.671-60.37c-18.413-5.41-33.696-10.05-33.962-10.31-0.5872-0.58-4.7981-47.99-4.3807-49.31 0.1618-0.52 7.1427-1.04 15.514-1.16l15.22-0.2179 0.57372 4.0405c0.31555 2.2223 0.90028 8.0374 1.2994 12.923 0.39912 4.8852 1.3334 9.3592 2.0763 9.9423 0.74282 0.58311 10.208 3.4791 21.035 6.4354l19.684 5.3752 19.566-5.8777c10.761-3.2328 20.169-6.4893 20.906-7.2366 0.81758-0.82953 1.8894-10.289 2.7515-24.284 1.1938-19.38 1.1653-23.082-0.18484-23.937-0.87841-0.55632-28.689-1.0194-61.802-1.0292l-60.205-0.01-0.75894-13.57c-0.41722-7.4604-0.85808-14.584-0.9797-15.83-0.18862-1.9322 5.8494-4.8297 41.08-19.713 22.716-9.5966 41.865-18.013 42.555-18.702 3.6489-3.6489-0.18568-3.9662-43.87-3.6296l-43.449 0.33471-1.9144-11.49c-1.0529-6.3196-2.0901-13.308-2.3048-15.531l-0.39041-4.0405 87.576-0.29589 87.576-0.2959-0.65777 4.9136c-0.36177 2.7025-0.9956 9.8863-1.4085 15.964l-0.75072 11.05-41.726 17.654c-22.949 9.7097-42.081 18.219-42.516 18.909-0.4343 0.69051-0.53352 1.6699-0.22047 2.1764 0.31304 0.50651 18.43 0.92094 40.26 0.92094s39.899 0.38961 40.154 0.86581c0.81698 1.5292-8.1238 104.37-9.15 105.25-1.412 1.208-68.935 19.735-71.547 19.631-1.1939-0.0476-17.236-4.5099-35.649-9.9163zm-5.44-271.26c2.5264-0.67679 2.626-1.1365 2.3088-10.663l-0.33142-9.9554-11.833-0.32899-11.833-0.32899v-12.618l10.678-0.0177c5.8731-0.009 11.349-0.44328 12.169-0.96345 1.0798-0.68508 1.398-3.7828 1.1544-11.238l-0.336-10.3h-46.177l-0.31059 27.128c-0.2803 24.482-0.11804 27.269 1.6637 28.572 2.0824 1.5227 37.611 2.1072 42.846 0.7048zm63.815-0.45621c1.9104-1.0224 2.233-2.4771 2.233-10.07v-8.8751l-7.1818-7.2462-7.1818-7.2462h5.2295c8.3938 0 9.2931-1.2859 8.8965-12.72l-0.33961-9.7908-22.362-0.31402c-16.327-0.22927-22.821 0.067-24.063 1.0976-1.3153 1.0916-1.6106 3.61-1.3026 11.109l0.39825 9.6974 7.2451 6.8099 7.2451 6.8099h-6.3394c-7.6618 0-8.7376 1.3805-8.7118 11.18 0.0187 7.0836 0.62945 8.8408 3.4456 9.9128 3.1452 1.1973 40.468 0.88886 42.789-0.35358zm62.339 0c1.9104-1.0224 2.233-2.4771 2.233-10.07v-8.8751l-7.1818-7.2462-7.1818-7.2462h5.886c3.643 0 6.3983-0.61726 7.2303-1.6197 0.85256-1.0273 1.221-5.1444 1.0072-11.256l-0.3371-9.6359h-46.176l-0.3366 10.31-0.3366 10.31 7.167 7.2313 7.167 7.2313-6.8304 0.35196-6.8304 0.35196-0.3322 10.008c-0.29227 8.8055-0.0842 10.073 1.7316 10.544 4.2732 1.1105 40.937 0.77816 43.122-0.39086z"/>
  </g>
 </g>
</svg>
