<?xml version="1.0" encoding="UTF-8" standalone="no"?>
<!-- Created with Inkscape (http://www.inkscape.org/) -->
<svg xmlns:rdf="http://www.w3.org/1999/02/22-rdf-syntax-ns#" xmlns="http://www.w3.org/2000/svg" height="82.59mm" width="82.647mm" version="1.1" xmlns:cc="http://creativecommons.org/ns#" xmlns:xlink="http://www.w3.org/1999/xlink" viewBox="0 0 82.647079 82.589622" xmlns:dc="http://purl.org/dc/elements/1.1/">
 <defs>
  <radialGradient id="radialGradient5241" gradientUnits="userSpaceOnUse" cy="54.813" cx="57.577" gradientTransform="matrix(1 0 0 .99930 0 .038106)" r="41.324">
   <stop stop-color="#fff" offset="0"/>
   <stop stop-color="#fff" stop-opacity=".095745" offset=".22069"/>
   <stop stop-color="#fff" stop-opacity=".094118" offset=".80012"/>
   <stop stop-color="#fff" stop-opacity=".97872" offset=".90290"/>
   <stop stop-color="#fff" stop-opacity="0" offset="1"/>
  </radialGradient>
 </defs>
 <metadata>
  <rdf:RDF>
   <cc:Work rdf:about="">
    <dc:format>image/svg+xml</dc:format>
    <dc:type rdf:resource="http://purl.org/dc/dcmitype/StillImage"/>
    <dc:title/>
   </cc:Work>
  </rdf:RDF>
 </metadata>
 <g transform="translate(-16.253 -13.518)">
  <ellipse style="paint-order:normal" rx="41.324" ry="41.295" cy="54.813" cx="57.577" fill="url(#radialGradient5241)"/>
  <path style="paint-order:normal" d="m218.57 79.662a127.86 128.21 0 0 0 -127.86 128.22 127.86 128.21 0 0 0 127.86 128.21 127.86 128.21 0 0 0 127.86 -128.21 127.86 128.21 0 0 0 -127.86 -128.22zm-0.0664 94.279a33.636 34.333 0 0 1 33.637 34.332 33.636 34.333 0 0 1 -33.637 34.332 33.636 34.333 0 0 1 -33.637 -34.332 33.636 34.333 0 0 1 33.637 -34.332z" fill-opacity=".82979" transform="scale(.26458)"/>
 </g>
</svg>
