<?xml version="1.0" encoding="UTF-8" standalone="no"?>
<!-- Generator: Adobe Illustrator 16.0.0, SVG Export Plug-In . SVG Version: 6.00 Build 0)  -->
<svg id="Capa_1" xmlns:rdf="http://www.w3.org/1999/02/22-rdf-syntax-ns#" style="enable-background:new 0 0 124 124" xmlns="http://www.w3.org/2000/svg" xml:space="preserve" height="124px" viewBox="0 0 124 124" width="124px" version="1.1" y="0px" x="0px" xmlns:cc="http://creativecommons.org/ns#" xmlns:dc="http://purl.org/dc/elements/1.1/"><metadata id="metadata152"><rdf:RDF><cc:Work rdf:about=""><dc:format>image/svg+xml</dc:format><dc:type rdf:resource="http://purl.org/dc/dcmitype/StillImage"/><dc:title/></cc:Work></rdf:RDF></metadata><g id="layer2"><rect id="rect289" style="paint-order:markers fill stroke" height="124" width="124" y="0" x="0"/></g><g id="layer1"><g id="g115" fill="#fff" transform="translate(-.24124 -.54125)"><path id="path109" d="m112 6h-100c-6.6 0-12 5.4-12 12s5.4 12 12 12h100c6.6 0 12-5.4 12-12s-5.4-12-12-12z"/><path id="path111" d="m112 50h-100c-6.6 0-12 5.4-12 12s5.4 12 12 12h100c6.6 0 12-5.4 12-12s-5.4-12-12-12z"/><path id="path113" d="m112 94h-100c-6.6 0-12 5.4-12 12s5.4 12 12 12h100c6.6 0 12-5.4 12-12s-5.4-12-12-12z"/></g></g></svg>
