<?xml version="1.0" encoding="UTF-8" standalone="no"?>
<!-- Created with Inkscape (http://www.inkscape.org/) -->

<svg
   xmlns:dc="http://purl.org/dc/elements/1.1/"
   xmlns:cc="http://creativecommons.org/ns#"
   xmlns:rdf="http://www.w3.org/1999/02/22-rdf-syntax-ns#"
   xmlns:svg="http://www.w3.org/2000/svg"
   xmlns="http://www.w3.org/2000/svg"
   xmlns:sodipodi="http://sodipodi.sourceforge.net/DTD/sodipodi-0.dtd"
   xmlns:inkscape="http://www.inkscape.org/namespaces/inkscape"
   width="66.23407mm"
   height="82.865028mm"
   viewBox="0 0 66.23407 82.865028"
   version="1.1"
   id="svg8"
   inkscape:version="0.92.1 r15371"
   sodipodi:docname="PREVIEW.svg">
  <defs
     id="defs2" />
  <sodipodi:namedview
     id="base"
     pagecolor="#ffffff"
     bordercolor="#666666"
     borderopacity="1.0"
     inkscape:pageopacity="0.0"
     inkscape:pageshadow="2"
     inkscape:zoom="1.4"
     inkscape:cx="149.97784"
     inkscape:cy="111.21416"
     inkscape:document-units="mm"
     inkscape:current-layer="g4544"
     showgrid="false"
     inkscape:snap-page="true"
     showguides="false"
     inkscape:guide-bbox="true"
     inkscape:window-width="1680"
     inkscape:window-height="1021"
     inkscape:window-x="1366"
     inkscape:window-y="0"
     inkscape:window-maximized="1"
     fit-margin-top="0"
     fit-margin-left="0"
     fit-margin-right="0"
     fit-margin-bottom="0">
    <sodipodi:guide
       position="-43.990107,41.566159"
       orientation="0,1"
       id="guide4497"
       inkscape:locked="false" />
    <sodipodi:guide
       position="33.05528,55.691499"
       orientation="1,0"
       id="guide4499"
       inkscape:locked="false" />
  </sodipodi:namedview>
  <metadata
     id="metadata5">
    <rdf:RDF>
      <cc:Work
         rdf:about="">
        <dc:format>image/svg+xml</dc:format>
        <dc:type
           rdf:resource="http://purl.org/dc/dcmitype/StillImage" />
        <dc:title></dc:title>
      </cc:Work>
    </rdf:RDF>
  </metadata>
  <g
     inkscape:label="Calque 1"
     inkscape:groupmode="layer"
     id="layer1"
     transform="translate(-66.101713,-28.348444)">
    <g
       id="g4544">
      <rect
         y="30.282444"
         x="68.035713"
         height="78.997025"
         width="62.36607"
         id="rect4487"
         style="opacity:1;fill:#cccccc;fill-opacity:0.37275989;fill-rule:nonzero;stroke:#4d4d4d;stroke-width:3.86800003;stroke-linecap:butt;stroke-linejoin:round;stroke-miterlimit:4;stroke-dasharray:none;stroke-dashoffset:0;stroke-opacity:1;paint-order:normal" />
      <g
         aria-label="PREVIEW"
         transform="matrix(0.77981051,0,0,0.77981051,-128.99337,-25.30386)"
         style="font-style:normal;font-variant:normal;font-weight:normal;font-stretch:normal;font-size:13.333498px;line-height:1.25;font-family:Xolonium;-inkscape-font-specification:'Xolonium, Normal';font-variant-ligatures:normal;font-variant-caps:normal;font-variant-numeric:normal;font-feature-settings:normal;text-align:start;letter-spacing:0px;word-spacing:0px;writing-mode:lr-tb;text-anchor:start;fill:#000000;fill-opacity:0.38720542;stroke:none"
         id="flowRoot4489">
        <path
           d="m 258.14259,126.14937 v -8.80011 h 6.40008 q 2.00002,0 2.00002,1.60002 v 2.13336 q 0,1.60002 -2.00002,1.60002 h -4.53339 v 3.46671 z m 1.86669,-4.60006 h 4.13338 q 0.53334,0 0.53334,-0.42667 v -2.21336 q 0,-0.42667 -0.53334,-0.42667 h -4.13338 z"
           style=""
           id="path4577" />
        <path
           d="m 268.27292,126.14937 v -8.80011 h 6.40008 q 2.00003,0 2.00003,1.60002 v 1.93336 q 0,1.58668 -2.01336,1.60002 l 2.41336,3.66671 h -2.05336 l -2.41336,-3.66671 h -2.4667 v 3.66671 z m 1.86669,-4.80006 h 4.13339 q 0.53334,0 0.53334,-0.42667 v -2.01336 q 0,-0.42667 -0.53334,-0.42667 h -4.13339 z"
           style=""
           id="path4579" />
        <path
           d="m 278.53347,126.14937 v -8.80011 h 8.13343 v 1.13335 h -6.26674 v 2.40003 h 5.60007 v 1.13335 h -5.60007 v 3.00003 h 6.26674 v 1.13335 z"
           style=""
           id="path4581" />
        <path
           d="m 287.51066,117.34926 h 1.94669 l 3.25338,6.93342 3.25337,-6.93342 h 1.94669 l -4.13338,8.80011 h -2.13336 z"
           style=""
           id="path4583" />
        <path
           d="m 299.05455,126.14937 v -8.80011 h 1.86669 v 8.80011 z"
           style=""
           id="path4585" />
        <path
           d="m 302.90877,126.14937 v -8.80011 h 8.13343 v 1.13335 h -6.26674 v 2.40003 h 5.60007 v 1.13335 h -5.60007 v 3.00003 h 6.26674 v 1.13335 z"
           style=""
           id="path4587" />
        <path
           d="m 312.0193,117.34926 h 1.86669 l 2.17336,6.98675 2.36003,-6.98675 h 2.13336 l 2.36003,6.98675 2.17336,-6.98675 h 1.86669 l -2.73337,8.80011 h -2.4667 l -2.26669,-6.70675 -2.2667,6.70675 h -2.46669 z"
           style=""
           id="path4589" />
      </g>
    </g>
  </g>
</svg>
