<?xml version="1.0" encoding="UTF-8" standalone="no"?>
<svg id="svg14" xmlns:rdf="http://www.w3.org/1999/02/22-rdf-syntax-ns#" xmlns="http://www.w3.org/2000/svg" height="641.06" width="725.78" version="1.1" xmlns:cc="http://creativecommons.org/ns#" xmlns:dc="http://purl.org/dc/elements/1.1/" viewBox="0 0 725.77996 641.06024">
 <metadata id="metadata20">
  <rdf:RDF>
   <cc:Work rdf:about="">
    <dc:format>image/svg+xml</dc:format>
    <dc:type rdf:resource="http://purl.org/dc/dcmitype/StillImage"/>
    <dc:title/>
   </cc:Work>
  </rdf:RDF>
 </metadata>
 <g id="g6" fill-rule="evenodd" transform="translate(-5.5888 -58.639)" stroke="#000" stroke-linecap="round">
  <path id="path2" stroke-width="12.5" fill="none" d="m368.19 70.168c-8.7664 0.43101-16.707 5.2812-21.098 12.881-109.06 188.92-218.12 377.83-327.18 566.75-4.6183 7.9943-4.6143 17.84 0 25.837 4.6143 7.9971 13.126 12.929 22.358 12.931 217.22 0.042 434.43 0.084 651.65 0.12604 9.2108-0.005 17.714-4.9123 22.333-12.881 4.6197-7.9684 4.6478-17.791 0.0756-25.787-108.15-188.96-216.31-377.92-324.46-566.88-4.8254-8.436-13.962-13.452-23.669-12.982z"/>
  <path id="path4" stroke-linejoin="round" d="m369.45 97.039c-108.76 188.39-217.52 376.77-326.28 565.16 216.61 0.0419 433.22 0.0842 649.83 0.12604-107.85-188.44-215.7-376.85-323.55-565.29z" stroke-width="29.444" fill="#fc0"/>
 </g>
 <g id="g12" stroke-linecap="round" transform="matrix(.9257 0 0 .9257 -565.74 -26.069)">
  <path id="path8" stroke-width="0" fill="#030303" d="m1050.1 587.87a46.869 46.869 0 1 1 -93.737 0 46.869 46.869 0 1 1 93.737 0z"/>
  <path id="path10" fill-rule="evenodd" stroke-width="95.75" d="m998.03 214.59c-26.416 0.39674-47.519 22.115-47.156 48.531l7.5 200.88c0.64423 17.255 3.827 30.825 18.74 39.529s28.357 8.704 43.27 0 18.096-22.274 18.74-39.529l7.5-200.88c0.1775-12.936-4.8872-25.393-14.041-34.535-9.1537-9.1419-21.617-14.191-34.553-13.996z"/>
 </g>
</svg>
